<svg width="36" height="36" viewBox="0 0 36 36" fill="none" xmlns="http://www.w3.org/2000/svg">
<rect x="0.5" y="0.5" width="35" height="35" rx="7.5" stroke="#282828"/>
<g clip-path="url(#clip0_391_2626)">
<path d="M15.4998 18L17.1665 19.6666L20.9165 15.9166M22.9175 12.1654C23.0891 12.5804 23.4185 12.9103 23.8332 13.0825L25.2875 13.6849C25.7026 13.8569 26.0323 14.1866 26.2042 14.6017C26.3761 15.0167 26.3761 15.4831 26.2042 15.8981L25.6023 17.3515C25.4303 17.7667 25.43 18.2335 25.6028 18.6486L26.2037 20.1015C26.289 20.307 26.3328 20.5274 26.3329 20.7499C26.3329 20.9725 26.2891 21.1928 26.2039 21.3984C26.1188 21.604 25.9939 21.7908 25.8366 21.9482C25.6792 22.1055 25.4924 22.2303 25.2867 22.3154L23.8335 22.9173C23.4185 23.089 23.0886 23.4183 22.9164 23.8331L22.314 25.2875C22.142 25.7025 21.8123 26.0323 21.3973 26.2042C20.9822 26.3761 20.5159 26.3761 20.1008 26.2042L18.6476 25.6022C18.2325 25.4307 17.7664 25.4311 17.3516 25.6032L15.8972 26.2048C15.4824 26.3763 15.0165 26.3761 14.6018 26.2044C14.1871 26.0326 13.8575 25.7032 13.6855 25.2886L13.0829 23.8338C12.9113 23.4188 12.582 23.0889 12.1672 22.9166L10.7129 22.3142C10.298 22.1424 9.96838 21.8128 9.79641 21.398C9.62443 20.9832 9.62419 20.5171 9.79576 20.1021L10.3977 18.6488C10.5692 18.2337 10.5689 17.7675 10.3968 17.3527L9.79565 15.8973C9.71042 15.6917 9.66654 15.4714 9.6665 15.2488C9.66647 15.0263 9.71028 14.8059 9.79544 14.6003C9.8806 14.3947 10.0054 14.2079 10.1628 14.0506C10.3202 13.8933 10.507 13.7685 10.7126 13.6834L12.1659 13.0814C12.5806 12.9099 12.9102 12.581 13.0826 12.1667L13.685 10.7123C13.8569 10.2972 14.1867 9.96749 14.6017 9.79557C15.0167 9.62365 15.4831 9.62365 15.8981 9.79557L17.3514 10.3976C17.7664 10.5691 18.2326 10.5687 18.6474 10.3966L20.1023 9.7965C20.5173 9.62468 20.9835 9.62471 21.3985 9.7966C21.8134 9.96849 22.1431 10.2981 22.3151 10.7131L22.9177 12.1679L22.9175 12.1654Z" stroke="url(#paint0_linear_391_2626)" stroke-width="1.66667" stroke-linecap="round" stroke-linejoin="round"/>
</g>
<defs>
<linearGradient id="paint0_linear_391_2626" x1="17.9998" y1="9.66663" x2="17.9998" y2="26.3333" gradientUnits="userSpaceOnUse">
<stop stop-color="white"/>
<stop offset="1" stop-color="#A3A3A3"/>
</linearGradient>
<clipPath id="clip0_391_2626">
<rect width="20" height="20" fill="white" transform="translate(8 8)"/>
</clipPath>
</defs>
</svg>
