<svg width="20" height="20" viewBox="0 0 20 20" fill="none" xmlns="http://www.w3.org/2000/svg">
<path d="M7.5 5.00008V8.75108C7.5 9.21019 7.5 9.43974 7.44277 9.65246C7.39206 9.84094 7.30864 10.019 7.19631 10.1787C7.06953 10.3588 6.89319 10.5058 6.54049 10.7997L3.45951 13.3672C3.10681 13.6611 2.93047 13.808 2.80369 13.9882C2.69136 14.1478 2.60794 14.3259 2.55723 14.5144C2.5 14.7271 2.5 14.9566 2.5 15.4157V15.6667C2.5 16.6002 2.5 17.0669 2.68166 17.4234C2.84144 17.737 3.09641 17.992 3.41002 18.1518C3.76654 18.3334 4.23325 18.3334 5.16667 18.3334H14.8333C15.7668 18.3334 16.2335 18.3334 16.59 18.1518C16.9036 17.992 17.1586 17.737 17.3183 17.4234C17.5 17.0669 17.5 16.6002 17.5 15.6667V15.4157C17.5 14.9566 17.5 14.7271 17.4428 14.5144C17.3921 14.3259 17.3086 14.1478 17.1963 13.9882C17.0695 13.808 16.8932 13.6611 16.5405 13.3672L13.4595 10.7997C13.1068 10.5058 12.9305 10.3588 12.8037 10.1787C12.6914 10.019 12.6079 9.84094 12.5572 9.65246C12.5 9.43974 12.5 9.21019 12.5 8.75108V5.00008M6.91667 5.00008H13.0833C13.3167 5.00008 13.4334 5.00008 13.5225 4.95467C13.6009 4.91472 13.6646 4.85098 13.7046 4.77258C13.75 4.68345 13.75 4.56677 13.75 4.33341V2.33341C13.75 2.10006 13.75 1.98338 13.7046 1.89425C13.6646 1.81585 13.6009 1.75211 13.5225 1.71216C13.4334 1.66675 13.3167 1.66675 13.0833 1.66675H6.91667C6.68331 1.66675 6.56663 1.66675 6.4775 1.71216C6.3991 1.75211 6.33536 1.81585 6.29541 1.89425C6.25 1.98338 6.25 2.10006 6.25 2.33341V4.33341C6.25 4.56677 6.25 4.68345 6.29541 4.77258C6.33536 4.85098 6.3991 4.91472 6.4775 4.95467C6.56663 5.00008 6.68331 5.00008 6.91667 5.00008ZM4.58333 14.1667H15.4167C15.8039 14.1667 15.9975 14.1667 16.1585 14.1988C16.8196 14.3303 17.3365 14.8471 17.468 15.5083C17.5 15.6693 17.5 15.8629 17.5 16.2501C17.5 16.6373 17.5 16.8309 17.468 16.9919C17.3365 17.6531 16.8196 18.1699 16.1585 18.3014C15.9975 18.3334 15.8039 18.3334 15.4167 18.3334H4.58333C4.19612 18.3334 4.00251 18.3334 3.84152 18.3014C3.18037 18.1699 2.66354 17.6531 2.53202 16.9919C2.5 16.8309 2.5 16.6373 2.5 16.2501C2.5 15.8629 2.5 15.6693 2.53202 15.5083C2.66354 14.8471 3.18037 14.3303 3.84152 14.1988C4.00251 14.1667 4.19612 14.1667 4.58333 14.1667Z" stroke="url(#paint0_linear_496_4034)" stroke-width="1.66667" stroke-linecap="round" stroke-linejoin="round"/>
<defs>
<linearGradient id="paint0_linear_496_4034" x1="10" y1="1.66675" x2="10" y2="18.3334" gradientUnits="userSpaceOnUse">
<stop stop-color="white"/>
<stop offset="1" stop-color="#A3A3A3"/>
</linearGradient>
</defs>
</svg>
