<svg width="12" height="12" viewBox="0 0 12 12" fill="none" xmlns="http://www.w3.org/2000/svg">
<path d="M5.00089 1C4.20978 1 3.43644 1.23459 2.77866 1.67411C2.12088 2.11362 1.6082 2.73832 1.30545 3.46921C1.00271 4.2001 0.923498 5.00435 1.07784 5.78025C1.23217 6.55616 1.61313 7.26887 2.17252 7.82827C2.73192 8.38767 3.44464 8.76862 4.22054 8.92296C4.99645 9.0773 5.8007 8.99809 6.53159 8.69534C7.26248 8.3926 7.88718 7.87992 8.32669 7.22214C8.76621 6.56436 9.0008 5.79102 9.0008 4.99991C9.00073 3.93909 8.57929 2.92173 7.82918 2.17162C7.07906 1.42151 6.06171 1.00007 5.00089 1Z" stroke="white" stroke-width="1.5" stroke-miterlimit="10"/>
<path d="M8.00098 8L11.0009 10.9999" stroke="white" stroke-width="1.5" stroke-miterlimit="10" stroke-linecap="round"/>
</svg>
