<svg width="151" height="50" viewBox="0 0 151 50" fill="none" xmlns="http://www.w3.org/2000/svg">
<rect y="0.543457" width="151" height="48.913" rx="24.4565" fill="#FEFEFE"/>
<path d="M30.8849 29V18.8182H34.902C35.6742 18.8182 36.3321 18.9656 36.8757 19.2606C37.4193 19.5523 37.8336 19.9583 38.1186 20.4787C38.407 20.9957 38.5511 21.5923 38.5511 22.2684C38.5511 22.9446 38.4053 23.5412 38.1136 24.0582C37.822 24.5753 37.3994 24.978 36.8459 25.2663C36.2957 25.5547 35.6295 25.6988 34.8473 25.6988H32.2869V23.9737H34.4993C34.9136 23.9737 35.255 23.9024 35.5234 23.7599C35.7952 23.6141 35.9974 23.4136 36.13 23.1584C36.2659 22.8998 36.3338 22.6032 36.3338 22.2684C36.3338 21.9304 36.2659 21.6354 36.13 21.3835C35.9974 21.1283 35.7952 20.9311 35.5234 20.7919C35.2517 20.6494 34.907 20.5781 34.4893 20.5781H33.0376V29H30.8849ZM42.0275 18.8182V29H39.9096V18.8182H42.0275ZM45.9016 29.1441C45.4144 29.1441 44.9802 29.0596 44.5991 28.8906C44.2179 28.7182 43.9163 28.4647 43.6942 28.1299C43.4755 27.7919 43.3661 27.3709 43.3661 26.8672C43.3661 26.4429 43.444 26.0866 43.5998 25.7983C43.7556 25.5099 43.9677 25.2779 44.2362 25.1022C44.5046 24.9266 44.8095 24.794 45.1509 24.7045C45.4956 24.615 45.8569 24.5521 46.2347 24.5156C46.6789 24.4692 47.0368 24.4261 47.3086 24.3863C47.5804 24.3432 47.7776 24.2803 47.9002 24.1974C48.0228 24.1146 48.0842 23.9919 48.0842 23.8295V23.7997C48.0842 23.4848 47.9847 23.2412 47.7859 23.0689C47.5903 22.8965 47.3119 22.8103 46.9506 22.8103C46.5695 22.8103 46.2662 22.8949 46.0408 23.0639C45.8155 23.2296 45.6663 23.4384 45.5934 23.6903L43.6346 23.5312C43.734 23.0672 43.9296 22.6662 44.2212 22.3281C44.5129 21.9867 44.8891 21.7249 45.3498 21.5426C45.8138 21.357 46.3507 21.2642 46.9606 21.2642C47.3848 21.2642 47.7908 21.3139 48.1786 21.4133C48.5697 21.5128 48.9161 21.6669 49.2177 21.8757C49.5226 22.0845 49.7629 22.353 49.9386 22.6811C50.1142 23.0059 50.2021 23.3953 50.2021 23.8494V29H48.1935V27.941H48.1339C48.0112 28.1797 47.8472 28.3901 47.6417 28.5724C47.4362 28.7514 47.1893 28.8923 46.9009 28.995C46.6126 29.0944 46.2795 29.1441 45.9016 29.1441ZM46.5082 27.6825C46.8197 27.6825 47.0948 27.6212 47.3335 27.4985C47.5721 27.3726 47.7594 27.2036 47.8952 26.9914C48.0311 26.7793 48.0991 26.539 48.0991 26.2706V25.4602C48.0328 25.5033 47.9416 25.5431 47.8256 25.5795C47.713 25.6127 47.5853 25.6441 47.4428 25.674C47.3003 25.7005 47.1578 25.7253 47.0153 25.7485C46.8728 25.7684 46.7435 25.7867 46.6275 25.8032C46.3789 25.8397 46.1618 25.8977 45.9762 25.9772C45.7906 26.0568 45.6464 26.1645 45.5437 26.3004C45.4409 26.433 45.3896 26.5987 45.3896 26.7976C45.3896 27.0859 45.494 27.3063 45.7028 27.4588C45.9149 27.6079 46.1834 27.6825 46.5082 27.6825ZM52.8793 31.8636C52.6108 31.8636 52.3589 31.8421 52.1236 31.799C51.8916 31.7592 51.6993 31.7078 51.5469 31.6449L52.0241 30.0639C52.2727 30.1401 52.4964 30.1816 52.6953 30.1882C52.8975 30.1948 53.0715 30.1484 53.2173 30.049C53.3665 29.9495 53.4875 29.7805 53.5803 29.5419L53.7045 29.2187L50.9652 21.3636H53.1925L54.7734 26.9716H54.853L56.4489 21.3636H58.6911L55.723 29.8253C55.5805 30.2362 55.3866 30.5942 55.1413 30.8991C54.8994 31.2074 54.5928 31.4443 54.2216 31.6101C53.8504 31.7791 53.4029 31.8636 52.8793 31.8636ZM70.1344 21.3636L67.4647 29H65.0783L62.4086 21.3636H64.6458L66.2317 26.8274H66.3113L67.8922 21.3636H70.1344ZM71.2182 29V21.3636H73.3361V29H71.2182ZM72.2821 20.3792C71.9673 20.3792 71.6971 20.2748 71.4718 20.066C71.2497 19.8539 71.1387 19.6003 71.1387 19.3054C71.1387 19.0137 71.2497 18.7635 71.4718 18.5547C71.6971 18.3425 71.9673 18.2365 72.2821 18.2365C72.597 18.2365 72.8655 18.3425 73.0875 18.5547C73.3129 18.7635 73.4256 19.0137 73.4256 19.3054C73.4256 19.6003 73.3129 19.8539 73.0875 20.066C72.8655 20.2748 72.597 20.3792 72.2821 20.3792ZM77.8466 29.1243C77.2666 29.1243 76.7412 28.9751 76.2706 28.6768C75.8033 28.3752 75.4321 27.9327 75.157 27.3494C74.8852 26.7628 74.7493 26.0435 74.7493 25.1917C74.7493 24.3167 74.8902 23.5892 75.1719 23.0092C75.4536 22.4259 75.8281 21.99 76.2955 21.7017C76.7661 21.41 77.2815 21.2642 77.8416 21.2642C78.2692 21.2642 78.6255 21.3371 78.9105 21.4829C79.1989 21.6254 79.4309 21.8044 79.6065 22.0199C79.7855 22.232 79.9214 22.4408 80.0142 22.6463H80.0788V18.8182H82.1918V29H80.1037V27.777H80.0142C79.9148 27.9891 79.7739 28.1995 79.5916 28.4084C79.4126 28.6138 79.179 28.7845 78.8906 28.9204C78.6056 29.0563 78.2576 29.1243 77.8466 29.1243ZM78.5178 27.4389C78.8591 27.4389 79.1475 27.3461 79.3828 27.1605C79.6214 26.9716 79.8037 26.7081 79.9297 26.37C80.0589 26.0319 80.1236 25.6359 80.1236 25.1818C80.1236 24.7277 80.0606 24.3333 79.9347 23.9985C79.8087 23.6638 79.6264 23.4053 79.3878 23.223C79.1491 23.0407 78.8591 22.9495 78.5178 22.9495C78.1697 22.9495 77.8764 23.044 77.6378 23.2329C77.3991 23.4218 77.2185 23.6837 77.0959 24.0184C76.9732 24.3532 76.9119 24.741 76.9119 25.1818C76.9119 25.6259 76.9732 26.0187 77.0959 26.3601C77.2218 26.6981 77.4025 26.9633 77.6378 27.1555C77.8764 27.3444 78.1697 27.4389 78.5178 27.4389ZM87.4132 29.1491C86.6277 29.1491 85.9515 28.99 85.3848 28.6718C84.8213 28.3503 84.3871 27.8963 84.0822 27.3096C83.7773 26.7197 83.6248 26.022 83.6248 25.2166C83.6248 24.4311 83.7773 23.7417 84.0822 23.1484C84.3871 22.5551 84.8163 22.0928 85.3699 21.7613C85.9267 21.4299 86.5796 21.2642 87.3287 21.2642C87.8324 21.2642 88.3014 21.3454 88.7356 21.5078C89.1731 21.6669 89.5543 21.9072 89.8791 22.2287C90.2072 22.5502 90.4624 22.9545 90.6447 23.4417C90.827 23.9256 90.9181 24.4924 90.9181 25.142V25.7237H84.47V24.4112H88.9245C88.9245 24.1063 88.8583 23.8361 88.7257 23.6008C88.5931 23.3655 88.4092 23.1816 88.1738 23.049C87.9418 22.9131 87.6717 22.8451 87.3635 22.8451C87.042 22.8451 86.7569 22.9197 86.5083 23.0689C86.2631 23.2147 86.0708 23.4119 85.9316 23.6605C85.7924 23.9057 85.7212 24.1792 85.7179 24.4808V25.7287C85.7179 26.1065 85.7875 26.433 85.9267 26.7081C86.0692 26.9832 86.2697 27.1953 86.5282 27.3444C86.7868 27.4936 87.0933 27.5682 87.448 27.5682C87.6833 27.5682 87.8987 27.535 88.0943 27.4687C88.2898 27.4024 88.4572 27.303 88.5964 27.1704C88.7356 27.0378 88.8417 26.8754 88.9146 26.6832L90.8734 26.8125C90.774 27.2831 90.5701 27.6941 90.2619 28.0454C89.957 28.3934 89.5626 28.6652 89.0787 28.8608C88.5981 29.053 88.0429 29.1491 87.4132 29.1491ZM95.7505 29.1491C94.9783 29.1491 94.3104 28.9851 93.747 28.6569C93.1868 28.3255 92.7543 27.8648 92.4494 27.2748C92.1445 26.6816 91.992 25.9938 91.992 25.2116C91.992 24.4228 92.1445 23.7334 92.4494 23.1434C92.7543 22.5502 93.1868 22.0895 93.747 21.7613C94.3104 21.4299 94.9783 21.2642 95.7505 21.2642C96.5228 21.2642 97.189 21.4299 97.7491 21.7613C98.3126 22.0895 98.7467 22.5502 99.0517 23.1434C99.3566 23.7334 99.5091 24.4228 99.5091 25.2116C99.5091 25.9938 99.3566 26.6816 99.0517 27.2748C98.7467 27.8648 98.3126 28.3255 97.7491 28.6569C97.189 28.9851 96.5228 29.1491 95.7505 29.1491ZM95.7605 27.5085C96.1118 27.5085 96.4051 27.4091 96.6404 27.2102C96.8758 27.008 97.0531 26.7329 97.1724 26.3849C97.295 26.0369 97.3564 25.6408 97.3564 25.1967C97.3564 24.7526 97.295 24.3565 97.1724 24.0085C97.0531 23.6605 96.8758 23.3854 96.6404 23.1832C96.4051 22.981 96.1118 22.8799 95.7605 22.8799C95.4058 22.8799 95.1075 22.981 94.8656 23.1832C94.627 23.3854 94.4463 23.6605 94.3237 24.0085C94.2044 24.3565 94.1447 24.7526 94.1447 25.1967C94.1447 25.6408 94.2044 26.0369 94.3237 26.3849C94.4463 26.7329 94.627 27.008 94.8656 27.2102C95.1075 27.4091 95.4058 27.5085 95.7605 27.5085Z" fill="#3790F4"/>
<path d="M112.511 18.8979C111.844 18.5017 111 18.9821 111 19.7575V28.2251C111 29.0043 111.852 29.4841 112.518 29.0804L119.574 24.8063C120.22 24.4152 120.216 23.477 119.567 23.0913L112.511 18.8979Z" fill="#3790F4"/>
</svg>
