<svg height="700pt" preserveAspectRatio="xMidYMid meet" viewBox="0 0 700 700" width="700pt" xmlns="http://www.w3.org/2000/svg"><g transform="matrix(.1 0 0 -.1 0 700)"><path d="m1597 6979c-73-25-120-54-175-110-46-46-97-141-107-199-8-40-8-3353 0-3390 2-13 7-42 11-65 12-83 70-211 140-311 74-105 166-180 380-309 109-66 201-121 205-123s103-61 221-132l213-129 2 137c2 75 4 621 6 1212s7 1091 11 1110c38 174 89 300 170 424 108 165 235 277 459 405 17 10 159 95 314 189l283 170-38 24c-35 22-1295 781-1365 822-18 10-111 66-207 124-274 165-269 162-385 167-60 3-94-1-138-16z"/><path d="m5244 6425c-33-9-218-114-532-302-265-158-482-290-482-293s25-39 57-80c96-128 167-294 209-490 12-53 14-3404 3-3475-53-331-333-572-674-580-77-1-194 20-265 49-30 13-212 117-405 233-192 115-359 215-370 220-20 11-20 8-19-670 1-725 1-722 50-820 92-180 342-269 524-185 42 20 1495 892 1498 901 2 4 7 7 12 7 7 0 90 48 190 110 47 30 190 116 220 133 199 113 337 289 402 513l23 79v2195 2195l-33 67c-75 153-248 235-408 193z"/><path d="m3554 5429c-231-139-439-268-464-287-160-126-274-313-308-507-4-22-7-615-7-1319v-1279l30-16c17-9 74-43 128-76s106-64 115-70c10-5 89-53 175-105s164-100 174-105c10-6 68-40 129-76 153-91 190-104 299-103 83 0 96 3 166 36 92 45 157 111 202 206l32 67v1715 1715l-23 79c-28 96-80 202-135 276-53 71-79 100-88 100-4 0-195-113-425-251z"/></g></svg>