<svg width="36" height="36" viewBox="0 0 36 36" fill="none" xmlns="http://www.w3.org/2000/svg">
<rect x="0.5" y="0.5" width="35" height="35" rx="7.5" stroke="#282828"/>
<path d="M17.4185 26.0123C17.603 26.1199 17.6952 26.1737 17.8254 26.2017C17.9265 26.2233 18.0739 26.2233 18.1749 26.2017C18.3051 26.1737 18.3973 26.1199 18.5818 26.0123C20.2052 25.0652 24.6668 22.0903 24.6668 17.9999V14.8332C24.6668 13.9383 24.6668 13.4909 24.5289 13.1732C24.3887 12.8504 24.249 12.6787 23.9615 12.4756C23.6786 12.2759 23.124 12.1606 22.0149 11.9299C20.7925 11.6757 19.8537 11.2166 18.9955 10.5527C18.5839 10.2343 18.3781 10.0751 18.2171 10.0317C18.0472 9.98586 17.9531 9.98586 17.7832 10.0317C17.6222 10.0751 17.4164 10.2343 17.0048 10.5527C16.1466 11.2166 15.2078 11.6757 13.9854 11.9299C12.8763 12.1606 12.3218 12.2759 12.0389 12.4756C11.7513 12.6787 11.6117 12.8504 11.4714 13.1732C11.3335 13.4909 11.3335 13.9383 11.3335 14.8332V17.9999C11.3335 22.0903 15.7951 25.0652 17.4185 26.0123Z" stroke="url(#paint0_linear_391_2632)" stroke-width="1.66667" stroke-linecap="round" stroke-linejoin="round"/>
<defs>
<linearGradient id="paint0_linear_391_2632" x1="18.0002" y1="9.99731" x2="18.0002" y2="26.2179" gradientUnits="userSpaceOnUse">
<stop stop-color="white"/>
<stop offset="1" stop-color="#A3A3A3"/>
</linearGradient>
</defs>
</svg>
